<svg width="203" height="36" viewBox="0 0 203 36" fill="none" xmlns="http://www.w3.org/2000/svg">
<path d="M8.71875 8.71484H12.2566L17.9998 17.4967L23.7469 8.71484H27.2848V27.2848H23.9788V13.9666L17.9998 22.721H17.8937L11.9972 14.0217V27.2848H8.73447L8.71875 8.71484Z" fill="#537A50"/>
<path d="M0 0V36H36V0H0ZM33.2287 33.2287H2.77135V2.77135H33.2287V33.2287Z" fill="#537A50"/>
<path d="M52.6126 12.6187H47.5928V10.0518H60.4039V12.6187H55.3801V25.8111H52.6284L52.6126 12.6187Z" fill="black"/>
<path d="M63.2891 10.0518H66.0408V16.6047H73.5607V10.0518H76.3124V25.8111H73.5607V19.1717H66.0408V25.8111H63.2891V10.0518Z" fill="black"/>
<path d="M80.3926 10.0518H92.0755V12.5283H83.16V16.6283H91.0613V19.1245H83.16V23.3346H92.2013V25.8111H80.4083L80.3926 10.0518Z" fill="black"/>
<path d="M102.226 10.0518H105.178L109.974 17.5206L114.769 10.0518H117.718V25.8111H114.966V14.5095L109.989 21.9391H109.899L104.958 14.5449V25.8111H102.233L102.226 10.0518Z" fill="black"/>
<path d="M127.364 9.9375H129.931L136.865 25.8108H133.937L132.325 22.0135H124.876L123.252 25.8187H120.418L127.364 9.9375ZM131.326 19.5527L128.602 13.2631L125.898 19.5527H131.326Z" fill="black"/>
<path d="M139.55 10.0518H142.117L150.557 20.9485V10.0518H153.281V25.8111H150.95L142.274 14.5999V25.8111H139.55V10.0518Z" fill="black"/>
<path d="M157.086 19.1245V10.0518H159.857V19.0144C159.857 21.9391 161.367 23.4918 163.843 23.4918C166.32 23.4918 167.806 22.0138 167.806 19.1245V10.0518H170.557V18.9908C170.557 23.708 167.9 26.0666 163.78 26.0666C159.661 26.0666 157.086 23.6962 157.086 19.1245Z" fill="black"/>
<path d="M179.398 9.9375H181.965L188.9 25.8108H185.971L184.363 22.0135H176.894L175.271 25.8187H172.437L179.398 9.9375ZM183.361 19.5527L180.637 13.2631L177.932 19.5527H183.361Z" fill="black"/>
<path d="M191.597 10.0518H194.368V23.2913H202.655V25.8111H191.597V10.0518Z" fill="black"/>
</svg>
