<?xml version="1.0" encoding="UTF-8"?>
<svg id="Layer_1" data-name="Layer 1" xmlns="http://www.w3.org/2000/svg" viewBox="0 0 620 212">
  <polygon points="160.08 21.87 160.08 24.61 174.79 30.26 145.14 129.11 112.78 28.41 133.59 24.64 133.59 21.87 74.66 21.87 74.66 24.63 93.28 29.48 99.12 46.71 69.45 128.73 40.01 28.41 60.82 24.64 60.82 21.87 0 21.87 0 24.63 19.88 29.48 60.18 158.58 64.96 158.58 102.32 56.29 137.11 158.41 137.17 158.58 141.96 158.58 182.47 30.72 198.13 24.6 198.13 21.87 160.08 21.87"/>
  <g>
    <path d="M282.66,149.32v-61.62c0-11.01-3.24-29.47-24.93-29.47-11.82,0-26.1,6.82-38.22,18.24l-.55-.27V.53L217.9,0l-28.98,6.96-.19,.05v1.62l14.55,6.31V149.32l-15.18,5.04v1.9h45.21v-1.9l-14.34-5.04V79.86c7.17-4.09,17.65-8.93,27.17-8.93,14.03,0,20.84,8.44,20.84,25.82v52.58l-14.55,5.04v1.9h45.43v-1.9l-15.19-5.04Z"/>
    <path d="M324.68,37.93c6.56,0,10.8-4.39,10.8-11.18s-5.27-10.55-10.37-10.55c-6.33,0-10.58,4.41-10.58,10.97,0,6.13,4.37,10.76,10.16,10.76"/>
    <polygon points="332.73 149.32 332.73 58.78 331.7 58.01 302.28 65.02 302.28 66.64 317.05 72.94 317.05 149.32 301.19 154.31 301.02 154.36 301.02 156.27 348.13 156.27 348.13 154.37 332.73 149.32"/>
    <path d="M389.2,98.29c-12.22-4.38-23.75-8.52-23.75-20.05,0-8.52,8.29-15.73,18.1-15.73,10.87,0,20.34,8.45,27.4,24.44l.08,.19,2.3-.51-.64-23.54v-.17s-.16-.06-.16-.06c-6.09-2.38-17.18-4.85-25.19-4.85-19.64,0-33.36,12.29-33.36,29.89s15.33,22.72,28.85,27.71c11.85,4.38,23.03,8.51,23.03,19.37,0,11.92-8.21,19.93-20.42,19.93s-24.04-10.55-30.56-28.21l-.07-.18-2.31,.26v26.03l.15,.07c10.29,4.46,19.77,6.54,29.84,6.54,21.13,0,35.9-13.67,35.9-33.25,0-17.4-14.84-22.73-29.19-27.87"/>
    <polygon points="503.03 149.92 464.4 100.12 480.48 83.68 496.26 69 511.99 63.5 511.99 61.6 473.31 61.6 473.31 63.49 485.58 68.26 453.83 104.06 445.97 104.06 445.97 .53 444.91 0 415.92 6.96 415.73 7 415.73 8.62 430.28 14.93 430.28 149.32 414.43 154.31 414.25 154.36 414.25 156.27 459.05 156.27 459.05 154.38 445.97 149.33 445.97 109.39 453.19 109.39 483.93 150.03 474.37 154.39 474.37 156.27 516.2 156.27 516.2 154.37 503.03 149.92"/>
    <path d="M583.43,61.6v1.87l13.86,7.33-23.7,65.84h-.08l-26-67.5,15.96-5.65v-1.9h-48.59v1.89l14.19,5.7,36.2,87.67-5.02,11.25c-3.67,8.04-8.98,17.75-13.01,21.18-4.43-6.06-7.91-9.14-14.39-9.14-5.58,0-9.95,4.36-9.95,9.92,0,4.98,4.5,10.34,14.38,10.34,11.34,0,20.66-9.75,28.5-29.79l39.19-99.34,14.89-7.73,.13-.07v-1.87h-36.57Z"/>
    <path d="M153.19,165.88h-4.17l-16.24,41.39-4.93,2.1v1.59h13.93v-1.6l-4.73-1.85,4.38-12.09h13.42l4.51,12.47-6.11,1.44v1.62h21.44v-1.61l-5.69-1.82-15.81-41.65Zm.58,26.63h-11.33l5.63-15.71,5.7,15.71Z"/>
    <path d="M200.27,166.29h-21.61v1.63l6.47,1.46v38.5l-6.47,1.46v1.63h21.19c14.85,0,25.23-9.2,25.23-22.37s-9.74-22.3-24.81-22.3m-5.94,2.86l4.54,.13c10.6,.32,15.97,6.81,15.97,19.3s-4.86,19.08-14.44,19.31l-6.08,.13v-38.87Z"/>
    <polygon points="269.73 166.29 256.01 166.29 256.01 167.88 260.75 170.2 249.65 199.81 238.23 169.36 244.34 167.92 244.34 166.29 222.69 166.29 222.69 167.9 228.52 169.73 245.25 211.22 245.31 211.38 248.15 211.38 265.01 170.06 269.73 167.88 269.73 166.29"/>
    <path d="M290.29,165.25c-6.69,0-12.39,2.4-16.5,6.95-3.83,4.24-5.94,10.06-5.94,16.39,0,14.22,8.65,23.41,22.03,23.41s22.51-9.84,22.51-23.41-8.67-23.34-22.1-23.34m11.86,23.34c0,12.74-4.46,20.97-11.37,20.97-8.23,0-12.76-7.45-12.76-20.97s3.96-20.9,11.44-20.9,12.69,8.2,12.69,20.9"/>
    <path d="M348.12,208.07c-1.86,.54-3.15,.73-5.07,.73-9.53,0-15.68-8.2-15.68-20.9,0-14.61,6.54-19.79,12.14-19.79,6.17,0,11.13,4.33,15.15,13.23l.07,.16,1.81-.18-.79-16.28h-1.17l-2.66,2.31c-2.53-1.28-6.59-2.1-10.4-2.1-13.68,0-24.39,10.47-24.39,23.82s9.66,22.92,24.04,22.92c6.56,0,10.36-1.18,14.72-3.21l.12-.06,1.44-10.74-1.2-.4-8.13,10.48Z"/>
    <path d="M385.21,166.04l-.06-.16h-4.17l-16.23,41.39-4.93,2.1v1.59h13.93v-1.6l-4.73-1.85,4.38-12.09h13.43l4.51,12.47-6.11,1.44v1.62h21.44v-1.61l-5.69-1.82-15.75-41.49Zm.52,26.47h-11.33l5.63-15.71,5.7,15.71Z"/>
    <path d="M404.46,166.29l-2.22,14.43,1.49,.46,5.39-7.07c3.12-3.95,4.5-4.83,7.8-4.97h2.88v38.73l-6.82,1.46v1.63h22.9v-1.63l-6.82-1.46v-38.73h2.45c3.37,.13,4.77,1.01,7.88,4.96l5.39,7.07,1.56-.46-2.29-14.43h-39.6Z"/>
    <path d="M488.83,196.21l-5.94,7.62c-2.21,2.76-3.74,3.93-7.53,4l-10.11,.2v-18.01h2.81c3.78,0,5.38,1.39,6.86,5.93l.75,2.32h1.68v-19.5h-1.69l-.75,2.46c-1.45,4.55-2.99,5.86-6.86,5.86h-2.81v-17.94l7.4,.13c4.5,.07,5.77,1.42,8.23,4.48l5.43,6.73,.12,.15,1.32-.56-1.36-13.79h-36.79v1.63l6.47,1.46v38.5l-6.47,1.46v1.63h39.02l1.65-14.37-1.41-.38Z"/>
  </g>
</svg>