<?xml version="1.0" encoding="UTF-8"?> <svg xmlns="http://www.w3.org/2000/svg" viewBox="0 0 235.41 149.63"><defs><style>.d{fill:#231f20;}</style></defs><g id="a"></g><g id="b"><g id="c"><g><g><path class="d" d="M55.75,73.3c-.3-.47-.66-.7-1.36-.7-.63,0-.97,.29-.97,.76,0,.54,.44,.78,1.36,1.01,1.44,.36,2.09,.9,2.09,2.12,0,1.13-.76,2.01-2.38,2.01-1.21,0-2.05-.33-2.66-1.13l1.07-.74c.37,.46,.79,.69,1.5,.69,.8,0,1.07-.35,1.07-.77,0-.48-.29-.75-1.41-1.04-1.36-.36-2.04-1.01-2.04-2.15s.72-1.94,2.36-1.94c1.1,0,1.93,.37,2.42,1.13l-1.05,.75Z"></path><path class="d" d="M58.51,78.41l2.4-6.9h1.34l2.4,6.9h-1.49l-.42-1.31h-2.31l-.42,1.31h-1.5Zm2.29-2.49h1.56l-.78-2.43-.78,2.43Z"></path><path class="d" d="M71.88,71.52v6.9h-1.17l-2.69-4.27v4.27h-1.33v-6.9h1.16l2.7,4.33v-4.33h1.33Z"></path><path class="d" d="M82.85,71.52v1.19h-2.9v1.71h2.6v1.18h-2.6v2.82h-1.4v-6.9h4.3Z"></path><path class="d" d="M88.92,78.41l-1.24-2.71h-1.12v2.71h-1.4v-6.9h2.47c1.59,0,2.58,.71,2.58,2.11,0,.93-.43,1.54-1.18,1.85l1.43,2.94h-1.54Zm-1.42-3.89c.83,0,1.31-.18,1.31-.9s-.48-.92-1.31-.92h-.94v1.82h.94Z"></path><path class="d" d="M92.09,78.41l2.4-6.9h1.34l2.4,6.9h-1.49l-.42-1.31h-2.31l-.42,1.31h-1.5Zm2.29-2.49h1.56l-.78-2.43-.78,2.43Z"></path><path class="d" d="M105.46,71.52v6.9h-1.17l-2.69-4.27v4.27h-1.33v-6.9h1.16l2.7,4.33v-4.33h1.33Z"></path><path class="d" d="M111.85,73.65c-.13-.65-.51-1.05-1.19-1.05-.81,0-1.24,.55-1.24,1.87v.98c0,1.28,.43,1.87,1.24,1.87,.7,0,1.04-.35,1.19-1.05h1.33c-.23,1.55-1.1,2.23-2.52,2.23-1.55,0-2.64-.94-2.64-3.05v-.98c0-2.13,1.09-3.05,2.64-3.05,1.37,0,2.3,.72,2.53,2.23h-1.34Z"></path><path class="d" d="M117.07,78.41h-1.4v-6.9h1.4v6.9Z"></path><path class="d" d="M123.52,73.3c-.3-.47-.66-.7-1.36-.7-.63,0-.97,.29-.97,.76,0,.54,.44,.78,1.36,1.01,1.44,.36,2.09,.9,2.09,2.12,0,1.13-.76,2.01-2.38,2.01-1.21,0-2.05-.33-2.66-1.13l1.07-.74c.37,.46,.79,.69,1.5,.69,.8,0,1.07-.35,1.07-.77,0-.48-.29-.75-1.41-1.04-1.36-.36-2.04-1.01-2.04-2.15s.72-1.94,2.36-1.94c1.1,0,1.93,.37,2.42,1.13l-1.05,.75Z"></path><path class="d" d="M130.7,73.65c-.13-.65-.51-1.05-1.19-1.05-.81,0-1.24,.55-1.24,1.87v.98c0,1.28,.43,1.87,1.24,1.87,.7,0,1.04-.35,1.19-1.05h1.33c-.23,1.55-1.1,2.23-2.52,2.23-1.55,0-2.64-.94-2.64-3.05v-.98c0-2.13,1.09-3.05,2.64-3.05,1.37,0,2.3,.72,2.53,2.23h-1.34Z"></path><path class="d" d="M136.78,78.5c-1.55,0-2.64-.94-2.64-3.05v-.98c0-2.13,1.09-3.05,2.64-3.05s2.65,.92,2.65,3.05v.98c0,2.11-1.09,3.05-2.65,3.05Zm-1.24-3.05c0,1.32,.43,1.87,1.24,1.87s1.25-.55,1.25-1.87v-.98c0-1.32-.44-1.87-1.25-1.87s-1.24,.55-1.24,1.87v.98Z"></path><path class="d" d="M148.19,78.41h-1.33l-1.58-6.9h1.5l.92,4.54,1.31-4.54h1.26l1.35,4.57,.91-4.57h1.51l-1.59,6.9h-1.34l-1.46-4.75-1.46,4.75Z"></path><path class="d" d="M158.6,78.5c-1.55,0-2.64-.94-2.64-3.05v-.98c0-2.13,1.09-3.05,2.64-3.05s2.65,.92,2.65,3.05v.98c0,2.11-1.09,3.05-2.65,3.05Zm-1.24-3.05c0,1.32,.43,1.87,1.24,1.87s1.25-.55,1.25-1.87v-.98c0-1.32-.44-1.87-1.25-1.87s-1.24,.55-1.24,1.87v.98Z"></path><path class="d" d="M167.56,78.41l-1.24-2.71h-1.12v2.71h-1.4v-6.9h2.47c1.59,0,2.58,.71,2.58,2.11,0,.93-.43,1.54-1.18,1.85l1.43,2.94h-1.54Zm-1.42-3.89c.83,0,1.31-.18,1.31-.9s-.48-.92-1.31-.92h-.94v1.82h.94Z"></path><path class="d" d="M172.78,77.23h2.9v1.18h-4.3v-6.9h1.4v5.72Z"></path><path class="d" d="M177.82,78.41v-6.9h2.45c1.56,0,2.65,.8,2.65,3v.9c0,2.19-1.09,3-2.65,3h-2.45Zm3.7-3v-.9c0-1.19-.32-1.81-1.25-1.81h-1.05v4.53h1.05c.93,0,1.25-.63,1.25-1.82Z"></path><path class="d" d="M60.15,85.3c-.3-.47-.66-.7-1.36-.7-.63,0-.97,.29-.97,.76,0,.54,.44,.78,1.36,1.01,1.44,.36,2.09,.9,2.09,2.12,0,1.13-.76,2.01-2.38,2.01-1.21,0-2.05-.33-2.66-1.13l1.07-.74c.37,.46,.79,.69,1.5,.69,.8,0,1.07-.35,1.07-.77,0-.48-.29-.75-1.41-1.04-1.36-.36-2.04-1.01-2.04-2.15s.72-1.94,2.36-1.94c1.1,0,1.93,.37,2.42,1.13l-1.05,.75Z"></path><path class="d" d="M65.11,87.98v2.43h-1.4v-6.9h2.47c1.59,0,2.58,.73,2.58,2.21s-.98,2.26-2.58,2.26h-1.07Zm.87-1.18c.97,0,1.38-.34,1.38-1.08,0-.66-.41-1.02-1.38-1.02h-.87v2.1h.87Z"></path><path class="d" d="M72.51,90.41h-1.4v-6.9h1.4v6.9Z"></path><path class="d" d="M79.13,90.41l-1.24-2.71h-1.12v2.71h-1.4v-6.9h2.47c1.59,0,2.58,.71,2.58,2.11,0,.93-.43,1.54-1.18,1.85l1.43,2.94h-1.54Zm-1.42-3.89c.83,0,1.31-.18,1.31-.9s-.48-.92-1.31-.92h-.94v1.82h.94Z"></path><path class="d" d="M84.44,90.41h-1.4v-6.9h1.4v6.9Z"></path><path class="d" d="M91.9,83.52v1.19h-1.9v5.71h-1.4v-5.71h-1.9v-1.19h5.2Z"></path><path class="d" d="M97.65,85.3c-.3-.47-.66-.7-1.36-.7-.63,0-.97,.29-.97,.76,0,.54,.44,.78,1.36,1.01,1.44,.36,2.09,.9,2.09,2.12,0,1.13-.76,2.01-2.38,2.01-1.21,0-2.05-.33-2.66-1.13l1.07-.74c.37,.46,.79,.69,1.5,.69,.8,0,1.07-.35,1.07-.77,0-.48-.29-.75-1.41-1.04-1.36-.36-2.04-1.01-2.04-2.15s.72-1.94,2.36-1.94c1.1,0,1.93,.37,2.42,1.13l-1.05,.75Z"></path><path class="d" d="M108.73,85.65c-.13-.65-.51-1.05-1.19-1.05-.81,0-1.24,.55-1.24,1.87v.98c0,1.28,.43,1.87,1.24,1.87,.7,0,1.04-.35,1.19-1.05h1.33c-.23,1.55-1.1,2.23-2.52,2.23-1.55,0-2.64-.94-2.64-3.05v-.98c0-2.13,1.09-3.05,2.64-3.05,1.37,0,2.3,.72,2.53,2.23h-1.34Z"></path><path class="d" d="M114.81,90.5c-1.55,0-2.64-.94-2.64-3.05v-.98c0-2.13,1.09-3.05,2.64-3.05s2.65,.92,2.65,3.05v.98c0,2.11-1.09,3.05-2.65,3.05Zm-1.24-3.05c0,1.32,.43,1.87,1.24,1.87s1.25-.55,1.25-1.87v-.98c0-1.32-.44-1.87-1.25-1.87s-1.24,.55-1.24,1.87v.98Z"></path><path class="d" d="M123.26,87.27l1.92-3.76h1.33v6.9h-1.34v-4.28l-1.5,3.04h-.85l-1.48-3.01v4.25h-1.33v-6.9h1.31l1.94,3.76Z"></path><path class="d" d="M130.67,87.98v2.43h-1.4v-6.9h2.47c1.59,0,2.58,.73,2.58,2.21s-.98,2.26-2.58,2.26h-1.07Zm.87-1.18c.97,0,1.38-.34,1.38-1.08,0-.66-.41-1.02-1.38-1.02h-.87v2.1h.87Z"></path><path class="d" d="M140.87,83.52v1.19h-2.9v1.55h2.6v1.18h-2.6v1.8h2.9v1.18h-4.3v-6.9h4.3Z"></path><path class="d" d="M147.84,83.52v1.19h-1.9v5.71h-1.4v-5.71h-1.9v-1.19h5.2Z"></path><path class="d" d="M151.5,90.41h-1.4v-6.9h1.4v6.9Z"></path><path class="d" d="M158.96,83.52v1.19h-1.9v5.71h-1.4v-5.71h-1.9v-1.19h5.2Z"></path><path class="d" d="M162.62,90.41h-1.4v-6.9h1.4v6.9Z"></path><path class="d" d="M167.91,90.5c-1.55,0-2.64-.94-2.64-3.05v-.98c0-2.13,1.09-3.05,2.64-3.05s2.65,.92,2.65,3.05v.98c0,2.11-1.09,3.05-2.65,3.05Zm-1.24-3.05c0,1.32,.43,1.87,1.24,1.87s1.25-.55,1.25-1.87v-.98c0-1.32-.44-1.87-1.25-1.87s-1.24,.55-1.24,1.87v.98Z"></path><path class="d" d="M178.3,83.52v6.9h-1.17l-2.69-4.27v4.27h-1.33v-6.9h1.16l2.7,4.33v-4.33h1.33Z"></path></g><g><path class="d" d="M101.51,121.91h-9.65v-2.04l5.23-6.16c.97-1.13,1.45-2.08,1.45-3.1,0-1.27-.93-1.9-1.95-1.9s-1.86,.66-1.95,1.9h-2.81c0-2.7,2.22-4.53,4.92-4.53s4.94,1.95,4.94,4.53c0,2.06-1.36,3.67-2.36,4.85l-3.22,3.78h5.39v2.67Z"></path><path class="d" d="M116.58,117.13c0,3.51-2.45,4.99-5.26,4.99s-5.26-1.47-5.26-4.99v-6.07c0-3.67,2.45-4.99,5.26-4.99s5.26,1.31,5.26,4.96v6.09Zm-5.26-8.38c-1.43,0-2.11,.91-2.11,2.58v5.53c0,1.68,.68,2.58,2.11,2.58s2.08-.91,2.08-2.58v-5.53c0-1.68-.68-2.58-2.08-2.58Z"></path><path class="d" d="M129.6,121.91h-9.65v-2.04l5.23-6.16c.97-1.13,1.45-2.08,1.45-3.1,0-1.27-.93-1.9-1.95-1.9s-1.86,.66-1.95,1.9h-2.81c0-2.7,2.22-4.53,4.92-4.53s4.94,1.95,4.94,4.53c0,2.06-1.36,3.67-2.36,4.85l-3.22,3.78h5.39v2.67Z"></path><path class="d" d="M142.74,121.91h-9.65v-2.04l5.23-6.16c.97-1.13,1.45-2.08,1.45-3.1,0-1.27-.93-1.9-1.95-1.9s-1.86,.66-1.95,1.9h-2.81c0-2.7,2.22-4.53,4.92-4.53s4.94,1.95,4.94,4.53c0,2.06-1.36,3.67-2.36,4.85l-3.22,3.78h5.39v2.67Z"></path></g><g><path class="d" d="M186.25,17.48c1.6-4.94,.54-9.08-6.55-17.48,.17,10.99,2.09,14.8,6.55,17.48Z"></path><path class="d" d="M189.43,25.79s.02,.03,.03,.05c.01-.01,.02-.03,.03-.04,.02,0,.03,0,.05,0,0-.02,0-.04-.01-.06,3.5-3.75,4.31-7.96,1.55-18.5-2.8,6.1-3.85,10.07-3.59,13.22-1.88-2.55-5.26-4.85-11.39-7.61,4.85,9.76,8.22,12.41,13.32,12.93Z"></path><path class="d" d="M218.28,56.86h-.02c.55-3.5-.2-8.05-2.57-15.06-3.89,10.36-3.98,15.35-1.46,19.61l-5.19,10.71-14.06-36.32c2.98-3.98,3.41-8.95,.6-19.7-3.09,6.75-4.31,11.2-4.11,14.74-.06,.02-.12,0-.18,.03h-.01c-2.18-2.78-6.02-5.33-12.76-8.38,4.92,9.91,8.51,13.38,13.35,14.44l15.2,39.26-34.41,71.05c-.4,.82-.05,1.81,.77,2.21,.36,.17,.75,.21,1.11,.12,.46-.11,.88-.43,1.1-.89l21.46-44.32,20.07-41.45c4.95-.54,8.88-3.61,14.82-13-7.04,2.34-11.13,4.49-13.58,7.05-.05-.03-.09-.08-.14-.11Z"></path><path class="d" d="M232.95,27.32c-7.92,7.62-9.4,11.63-8.32,16.71,4.71-2.2,7.01-5.8,8.32-16.71Z"></path><path class="d" d="M220.7,52.08s.04,0,.05,0c.01,.01,.02,.03,.03,.04,.01-.02,.02-.03,.03-.05,5.13,0,8.75-2.28,14.59-11.49-6.37,2.11-9.99,4.05-12.12,6.39,.58-3.11-.04-7.16-2.2-13.52-3.83,10.2-3.47,14.47-.37,18.56,0,.02-.01,.04-.02,.06Z"></path></g><g><path class="d" d="M49.16,17.48C47.56,12.53,48.61,8.39,55.71,0c-.17,10.99-2.09,14.8-6.55,17.48Z"></path><path class="d" d="M45.98,25.79s-.02,.03-.03,.05c-.01-.01-.02-.03-.03-.04-.02,0-.03,0-.05,0,0-.02,0-.04,.01-.06-3.5-3.75-4.31-7.96-1.55-18.5,2.8,6.1,3.85,10.07,3.59,13.22,1.88-2.55,5.26-4.85,11.39-7.61-4.85,9.76-8.22,12.41-13.32,12.93Z"></path><path class="d" d="M17.13,56.86h.02c-.55-3.5,.2-8.05,2.57-15.06,3.89,10.36,3.98,15.35,1.46,19.61l5.19,10.71,14.06-36.32c-2.98-3.98-3.41-8.95-.6-19.7,3.09,6.75,4.31,11.2,4.11,14.74,.06,.02,.12,0,.18,.03h.01c2.18-2.78,6.02-5.33,12.76-8.38-4.92,9.91-8.51,13.38-13.35,14.44l-15.2,39.26,34.41,71.05c.4,.82,.05,1.81-.77,2.21-.36,.17-.75,.21-1.11,.12-.46-.11-.88-.43-1.1-.89l-21.46-44.32L18.22,62.92c-4.95-.54-8.88-3.61-14.82-13,7.04,2.34,11.13,4.49,13.58,7.05,.05-.03,.09-.08,.14-.11Z"></path><path class="d" d="M2.46,27.32c7.92,7.62,9.4,11.63,8.32,16.71-4.71-2.2-7.01-5.8-8.32-16.71Z"></path><path class="d" d="M14.7,52.08s-.04,0-.05,0c-.01,.01-.02,.03-.03,.04-.01-.02-.02-.03-.03-.05-5.13,0-8.75-2.28-14.59-11.49,6.37,2.11,9.99,4.05,12.12,6.39-.58-3.11,.04-7.16,2.2-13.52,3.83,10.2,3.47,14.47,.37,18.56,0,.02,.01,.04,.02,.06Z"></path></g><g><path class="d" d="M99.22,50.1v1.97c0,5.49-2.58,8.02-6.77,8.02s-7.25-2.53-7.25-8.02v-2.5c0-5.91,3.06-8.39,7.25-8.39s6.23,2.34,6.77,5.94h-4.21c-.19-1.15-.96-2.26-2.56-2.26-1.84,0-2.82,1.33-2.82,4.34v2.88c0,3.01,.99,4.34,2.82,4.34s2.37-1.12,2.53-2.64h-2.45v-3.68h6.69Z"></path><path class="d" d="M109.93,60.09c-4.18,0-7.25-2.53-7.25-8.02v-2.88c0-5.54,3.06-8.02,7.25-8.02s7.25,2.48,7.25,8.02v2.88c0,5.49-3.06,8.02-7.25,8.02Zm-2.82-8.02c0,3.01,.99,4.34,2.82,4.34s2.82-1.33,2.82-4.34v-2.88c0-3.01-.99-4.34-2.82-4.34s-2.82,1.33-2.82,4.34v2.88Z"></path><path class="d" d="M125.46,56.15h7.19v3.68h-11.62v-18.38h4.42v14.71Z"></path><path class="d" d="M135.58,59.83v-18.38h6.85c4.18,0,7.25,2.05,7.25,7.86v2.66c0,5.75-3.06,7.86-7.25,7.86h-6.85Zm9.67-7.86v-2.66c0-2.48-.53-4.18-2.82-4.18h-2.42v11.03h2.42c2.29,0,2.82-1.71,2.82-4.18Z"></path></g></g></g></g></svg> 