<?xml version="1.0" encoding="UTF-8"?> <svg xmlns="http://www.w3.org/2000/svg" height="70" viewBox="0 0 185 70" width="185"><path d="m897.647497 1255.53394c1.448537 3.15601 2.01614 5.23802 1.923041 6.89403.02803.008.05606.004.083088.015.003004.001.004005.003.007008.004 1.020083-1.30501 2.81699-2.49901 5.975343-3.92302-2.305447 4.63902-3.986232 6.26103-6.251637 6.75703l-7.117556 18.36709 16.113106 33.24116c.186198.38401.025027.84701-.360382 1.03301-.168179.081-.350372.097-.518551.056-.218231-.052-.410435-.199-.515547-.415l-10.05067-20.7331-9.401981-19.3941c-2.315459-.252-4.156413-1.68901-6.939367-6.08103 3.299502 1.09401 5.210531 2.09901 6.35875 3.29602.025027-.015.041044-.038.068072-.05.002003-.001.005006-.001.007008-.002-.259275-1.63601.091097-3.76302 1.204278-7.04103 1.822936 4.84802 1.86498 7.18203.681724 9.17504l2.429579 5.01102 6.584991-16.99208c-1.39448-1.86401-1.597696-4.18902-.280297-9.21804zm147.705803-.0003c1.3174 5.02902 1.11319 7.35403-.28129 9.21804l6.58499 16.99208 2.42857-5.01102c-1.18125-1.99301-1.1392-4.32702.68273-9.17504 1.11218 3.27901 1.46355 5.40502 1.20428 7.04103.003.002.005.001.00701.002.02602.013.04304.036.06707.051 1.15022-1.19701 3.06125-2.20301 6.36075-3.29702-2.78296 4.39202-4.62491 5.82903-6.94137 6.08103l-9.40098 19.3941-10.04967 20.7331c-.10611.217-.29832.363-.51555.415-.16817.041-.35237.026-.52055-.056-.38341-.186-.54458-.648-.35938-1.03301l16.11411-33.24116-7.11956-18.36709c-2.26441-.495-3.94519-2.11801-6.25164-6.75603 3.16036 1.42301 4.95626 2.61801 5.97735 3.92202.03303-.014.06206-.011.08909-.018-.0931-1.65701.47451-3.73902 1.92404-6.89503zm-76.567181 54.93036c1.316397 0 2.461613.61501 2.461613 2.32201v2.85102c0 1.64401-1.145216 2.33201-2.461613 2.33201-1.315397 0-2.461613-.688-2.461613-2.33201v-2.84101c0-1.71701 1.146216-2.33202 2.461613-2.33202zm12.519491-.0002c1.252329 0 2.387535.71001 2.387535 2.00401 0 .68901-.403429 1.31401-.987048 1.61101.59363.265 1.09316.93301 1.09316 1.76001 0 1.36701-1.136206 2.13101-2.493647 2.13101-1.358442 0-2.493647-.764-2.493647-2.13101 0-.827.51855-1.49501 1.09316-1.76001-.58362-.297-.988049-.922-.988049-1.61101 0-1.294 1.146217-2.00401 2.388536-2.00401zm-5.155974.0952v7.31504h-1.485577v-5.76703l-1.051116.68901v-1.43101l1.199273-.80601zm-14.60961-.0952c1.316398 0 2.313456.91201 2.313456 2.12001 0 .96501-.636676 1.71801-1.104172 2.26902l-1.505598 1.77h2.52468v1.25101h-4.520799v-.954l2.451602-2.88302c.456485-.531.678721-.975.678721-1.45301 0-.593-.434461-.89-.911968-.89-.499531 0-.869924.307-.91297.89h-1.315396c0-1.261 1.040104-2.12001 2.302444-2.12001zm19.765584 4.21902c-.49953 0-1.00807.38201-1.00807 1.01801 0 .562.42445 1.028 1.00807 1.028.562597 0 1.018081-.466 1.018081-1.028 0-.636-.530564-1.01801-1.018081-1.01801zm-12.519491-2.96781c-.66871 0-.987048.424-.987048 1.20801v2.58701c0 .784.318338 1.208.987048 1.208.658699 0 .977037-.424.977037-1.208v-2.58701c0-.78401-.318338-1.20801-.977037-1.20801zm12.519491-.0002c-.510542 0-.912969.403-.912969.901 0 .50901.402427.92301.912969.92301.498529 0 .911968-.414.911968-.92301 0-.498-.413439-.901-.911968-.901zm-37.337939-11.99156c.515547 0 .90396.173 1.133203.528l-.491522.35101c-.14115-.22001-.308327-.32701-.636676-.32701-.295313 0-.454482.136-.454482.35501 0 .252.206219.365.636676.472l.149159.04058c.570575.16908.82988.42434.82988.95142 0 .52801-.356378.93901-1.114183.93901-.566601 0-.960019-.154-1.245322-.52801l.500532-.346c.173184.215.370393.322.701745.322.374397 0 .501532-.163.501532-.359 0-.225-.136144-.351-.660701-.487-.635675-.168-.954013-.472-.954013-1.005 0-.50901.337358-.90701 1.104172-.90701zm17.561944-.0001c.515548 0 .902959.173 1.133203.529l-.491522.35001c-.140148-.22001-.309328-.32701-.636675-.32701-.295314 0-.454483.136-.454483.35501 0 .252.206219.365.637677.472.672714.169.977037.421.977037.992 0 .52801-.354376.93901-1.113182.93901-.566601 0-.960019-.154-1.245322-.52801l.501533-.346c.173184.215.369392.323.701745.323.374397 0 .500531-.164.500531-.36 0-.225-.136144-.351-.6597-.487-.636676-.168-.954013-.472-.954013-1.005 0-.50901.336357-.90701 1.103171-.90701zm8.678313.0005c.730776 0 1.240317.43 1.240317 1.42601v.458c0 .98601-.509541 1.42601-1.240317 1.42601-.72577 0-1.235311-.44-1.235311-1.42601v-.458c0-.99601.509541-1.42601 1.235311-1.42601zm24.8672 0c.730776 0 1.240317.43 1.240317 1.42601v.458c0 .98601-.509541 1.42601-1.240317 1.42601-.725771 0-1.235312-.44-1.235312-1.42601v-.458c0-.99601.509541-1.42601 1.235312-1.42601zm-28.272515-.0007c.641681 0 1.077144.337 1.185258 1.04301h-.627666c-.061065-.304-.238253-.49101-.557592-.49101-.378402 0-.579615.25801-.579615.87501v.458c0 .598.201213.874.579615.874.327348 0 .487518-.164.557592-.491h.622661c-.107114.72501-.515547 1.04201-1.180253 1.04201-.724769 0-1.235311-.439-1.235311-1.42501v-.458c0-.99601.510542-1.42701 1.235311-1.42701zm20.588157.0421v3.22602h-.655696v-3.22602zm-9.254224.0004c.743789 0 1.207281.341 1.207281 1.03301 0 .683-.458487 1.057-1.207281 1.057h-.500532v1.13601h-.656697v-3.22602zm-22.152118-.0004v3.22602h-.654695v-3.22602zm-3.09038.0005c.74479 0 1.207281.332 1.207281.98701 0 .434-.201213.719-.551585.864l.66871 1.37501h-.720766l-.580616-1.26701h-.523556v1.26701h-.655696v-3.22602zm37.98943 0v.556h-.889945v2.67002h-.654695v-2.67002h-.888944v-.556zm-40.485981-.0005v3.22602h-.654695v-3.22602zm47.656093.0007 1.264342 2.02401v-2.02401h.622661v3.22602h-.547581l-1.259337-1.99701v1.99701h-.622661v-3.22602zm-12.37674-.0002v.556h-.889944v2.67002h-.655696v-2.67002h-.888944v-.556zm-38.242899-.0001c.74379 0 1.207282.341 1.207282 1.03301 0 .683-.458487 1.057-1.207282 1.057h-.500531v1.13601h-.656698v-3.22602zm34.978334.0001v.556h-1.357441v.72501h1.216291v.551h-1.216291v.842h1.357441v.55201h-2.013137v-3.22602zm10.186013-.0005v3.22602h-.655696v-3.22602zm-19.341633.0008.907964 1.75701.898954-1.75701h.62166v3.22602h-.626665v-2.00101l-.701745 1.421h-.397422l-.693737-1.408v1.98801h-.622661v-3.22602zm-13.778928-.0005v.556h-.889945v2.67002h-.654695v-2.67002h-.889945v-.556zm35.597391.5093c-.378402 0-.579615.25801-.579615.87501v.458c0 .617.201213.874.579615.874.379403 0 .585622-.257.585622-.874v-.458c0-.617-.206219-.87501-.585622-.87501zm-24.8672 0c-.379402 0-.580616.25801-.580616.87501v.458c0 .617.201214.874.580616.874.379403 0 .584621-.257.584621-.874v-.458c0-.617-.205218-.87501-.584621-.87501zm7.834518.0468h-.406432v.98201h.406432c.454482 0 .646686-.159.646686-.505 0-.308-.192204-.47701-.646686-.47701zm-30.702595 0h-.406431v.98201h.406431c.454483 0 .646687-.159.646687-.505 0-.308-.192204-.47701-.646687-.47701zm5.493132.0001h-.439467v.85101h.439467c.388412 0 .61265-.084.61265-.42 0-.33701-.224238-.43101-.61265-.43101zm.719564-6.21273c.729774 0 1.239315.43101 1.239315 1.42701v.458c0 .98601-.509541 1.42601-1.239315 1.42601-.725771 0-1.235312-.44-1.235312-1.42601v-.458c0-.996.509541-1.42701 1.235312-1.42701zm40.48528 0c.730775 0 1.240316.43101 1.240316 1.42701v.458c0 .98601-.509541 1.42601-1.240316 1.42601-.725771 0-1.235312-.44-1.235312-1.42601v-.458c0-.996.509541-1.42701 1.235312-1.42701zm-33.849636.0422v1.39401l1.021084-1.39401h.776825l-.988049 1.30501 1.180253 1.92201h-.782831l-.822874-1.36101-.384408.50501v.856h-.654695v-3.22702zm5.550593 0v3.22702h-.655696v-3.22702zm25.821412 0v3.22702h-.654695v-3.22702zm-18.601347 0v.55701h-.889945v2.67001h-.654695v-2.67001h-.889945v-.55701zm31.396631 0v2.67502h1.35744v.552h-2.01213v-3.22702zm-61.461249 0 .429456 2.12301.613652-2.12301h.589626l.63167 2.13701.426453-2.13701h.70675l-.743789 3.22702h-.627666l-.683726-2.22101-.682725 2.22101h-.622661l-.739786-3.22702zm38.288949-.0004 1.263341 2.02501v-2.02501h.623662v3.22702h-.548582l-1.259337-1.99701v1.99701h-.622661v-3.22702zm-13.563299.0003 1.264342 2.02501v-2.02501h.622661v3.22702h-.547581l-1.259337-1.99701v1.99701h-.622661v-3.22702zm8.363679-.0002v.55701h-1.35644v.725h1.216291v.551h-1.216291v.84201h1.35644v.552h-2.012136v-3.22702zm2.267107 0c.74479 0 1.208282.33301 1.208282.98701 0 .435-.201213.72-.552586.865l.66871 1.37501h-.719764l-.581618-1.26801h-.523556v1.26801h-.654695v-3.22702zm-42.082076.0002 1.263342 2.02501v-2.02501h.622661v3.22702h-.547582l-1.259337-1.99701v1.99701h-.622661v-3.22702zm49.613771-.0004 1.123193 3.22702h-.697741l-.197209-.613h-1.081148l-.196208.613h-.701745l1.123192-3.22702zm15.833208 0 1.12319 3.22702h-.69674l-.19721-.613h-1.08114l-.19621.613h-.702747l1.123187-3.22702zm-4.599181.0001 1.264342 2.02501v-2.02501h.622661v3.22702h-.547581l-1.259337-1.99701v1.99701h-.622661v-3.22702zm-7.170112 0v.55701h-.889945v2.67001h-.654695v-2.67001h-.888944v-.55701zm-40.255737.0006.575612 1.20201.579615-1.20201h.7538l-1.006068 1.90801v1.31801h-.654695v-1.31801l-1.007069-1.90801zm-8.224531-.0006v.55701h-1.357441v.725h1.217292v.551h-1.217292v.84201h1.357441v.552h-2.013137v-3.22702zm15.778251.0002c.743789 0 1.207281.33301 1.207281.98701 0 .435-.201213.72-.552586.865l.669711 1.37501h-.720766l-.580616-1.26801h-.523556v1.26801h-.655696v-3.22702zm36.893567.51001c-.378402 0-.579616.257-.579616.875v.458c0 .61701.201214.87401.579616.87401.379402 0 .585621-.257.585621-.87401v-.458c0-.618-.206219-.875-.585621-.875zm-40.48528 0c-.379403 0-.580617.257-.580617.875v.458c0 .61701.201214.87401.580617.87401.378401 0 .58462-.257.58462-.87401v-.458c0-.618-.206219-.875-.58462-.875zm31.915482.4167-.365388 1.136h.729775zm15.833211 0-.36439 1.136h.72978zm-44.218045-.3697h-.439467v.851h.439467c.388412 0 .613651-.084.613651-.421 0-.336-.225239-.43-.613651-.43zm21.106407-.0001h-.439467v.851h.439467c.388412 0 .613651-.084.613651-.421 0-.336-.225239-.43-.613651-.43zm-41.108942-14.90718c1.959079 0 3.394603 1.16001 3.394603 3.75202v1.34601c0 2.56701-1.435524 3.75202-3.394603 3.75202-1.95908 0-3.392602-1.18501-3.392602-3.75202v-1.34601c0-2.59201 1.433522-3.75202 3.392602-3.75202zm37.289887.12521v1.72h-3.368576v1.57001h2.994179v1.72001h-2.994179v1.87001h3.368576v1.72001h-5.440776v-8.60004zm31.587233.0001c1.98411 0 3.25646.91 3.25646 2.70501 0 1.121-.49853 1.88101-1.37246 2.28001l1.72283 3.61502h-2.27141l-1.43553-3.25302h-1.07213v3.25302h-2.0712v-8.60004zm-24.776102-.0003 1.335418 2.95401 1.334417-2.95401h2.38353l-2.682848 5.16002v3.44002h-2.071199v-3.44002l-2.682848-5.16002zm-22.405986 0v1.72h-2.245384v6.88004h-2.071199v-6.88004h-2.245384v-1.72zm-11.052534.0001v1.72h-3.368576v1.77001h2.994179v1.72001h-2.994179v3.39002h-2.0722v-8.60004zm50.87521.0005 2.993182 8.59904h-2.208349l-.46149-1.47001h-2.65682l-.449477 1.47001h-2.208345l2.99518-8.59904zm-5.676927-.0005v1.72h-3.368576v1.57001h2.994179v1.72101h-2.994179v1.86901h3.368576v1.72001h-5.440776v-8.60004zm-30.702494-.0001v3.29001h2.644808v-3.29001h2.071199v8.60004h-2.071199v-3.58902h-2.644808v3.58902h-2.071199v-8.60004zm-25.138287 1.596c-.860914 0-1.322404.62301-1.322404 2.03101v1.34601c0 1.40901.46149 2.03201 1.322404 2.03201.861915 0 1.323405-.623 1.323405-2.03201v-1.34601c0-1.408-.46149-2.03101-1.323405-2.03101zm60.518648 1.27061-.798848 2.54301h1.584682zm8.109212-1.14631h-.92298v1.90701h.92298c.83588 0 1.43552-.112 1.43552-.922 0-.82301-.59964-.98501-1.43552-.98501zm-53.832854-14.80597c1.95908 0 3.394604 1.15901 3.394604 3.75202v1.34601c0 2.56801-1.435524 3.75201-3.394604 3.75201-1.958078 0-3.392601-1.184-3.392601-3.75201v-1.34601c0-2.59301 1.434523-3.75202 3.392601-3.75202zm33.248798-.0003c1.372457 0 2.482636.462 3.094285 1.40901l-1.53563 1.097c-.337358-.574-.759807-.786-1.534629-.786-.685728 0-.985046.312-.985046.749 0 .51001.448476.79701 1.534629 1.10801 1.870986.537 2.582742 1.234 2.582742 2.70501 0 1.55801-1.048113 2.56801-3.007193 2.56801-1.571668 0-2.632795-.387-3.443655-1.409l1.547643-1.08401c.423449.53601.948006.77301 1.720826.77301.798848 0 1.11118-.33701 1.11118-.74801 0-.498-.349371-.748-1.621722-1.159-1.747855-.56101-2.49665-1.35901-2.49665-2.74202 0-1.421.935994-2.48101 3.03322-2.48101zm-59.571843.1251v5.13503c0 1.259.374398 1.87001 1.323405 1.87001.948007 0 1.322404-.61101 1.322404-1.87001v-5.13503h2.071199v5.12303c0 2.54201-1.484576 3.60201-3.393603 3.60201-1.910028 0-3.393602-1.06-3.393602-3.59001v-5.13503zm-7.271619-.1251c1.958078 0 3.392601 1.16001 3.392601 3.75202v1.34601c0 2.56801-1.434523 3.75201-3.392601 3.75201-1.95908 0-3.394604-1.184-3.394604-3.75201v-1.34601c0-2.59201 1.435524-3.75202 3.394604-3.75202zm17.228089.125c1.983106 0 3.256457.91001 3.256457 2.70502 0 1.121-.49953 1.882-1.372457 2.28101l1.720827 3.61401h-2.269409l-1.435524-3.25301h-1.073139v3.25301h-2.070198v-8.60004zm85.082829-.0001v1.72001h-3.36858v1.57001h2.99518v1.72101h-2.99518v1.86901h3.36858v1.72h-5.43978v-8.60004zm4.8025.0004c1.9841 0 3.25645.91001 3.25645 2.70502 0 1.121-.49853 1.881-1.37245 2.28001l1.72282 3.61501h-2.27141l-1.43552-3.25301h-1.07214v3.25301h-2.0712v-8.60004zm-14.98271 0v6.88004h3.36757v1.72h-5.43877v-8.60004zm-30.328698 0v8.60004h-2.071199v-8.60004zm51.536708 0 1.33542 2.95402 1.33542-2.95402h2.38253l-2.68285 5.16003v3.44001h-2.0712v-3.44001l-2.68184-5.16003zm-121.660553-.0001c2.033158 0 3.218417.71101 3.218417 2.28101 0 .88501-.386411 1.39601-.985046 1.79501.785834.386 1.259337.99701 1.259337 2.05601 0 1.37101-.921979 2.46801-3.217416 2.46801h-3.282485v-8.60004zm62.727192-.0002c1.958079 0 3.392602.96001 3.392602 3.67702v1.24601c0 2.69301-1.434523 3.67701-3.392602 3.67701h-3.206404v-8.60004zm-29.130325.0002c2.033159 0 3.217416.71101 3.217416 2.28101 0 .88501-.385409 1.39601-.985046 1.79501.785834.386 1.260338.99701 1.260338 2.05601 0 1.37101-.92298 2.46801-3.218417 2.46801h-3.281483v-8.60004zm55.851493.0001v8.60004h-2.070198v-8.60004zm-40.681788-.0004 3.194391 4.82403v-4.82403h1.946066v8.60004h-1.671775l-3.169365-4.76102v4.76102h-1.946066v-8.60004zm44.874341.0003v6.88004h3.36857v1.72h-5.44077v-8.60004zm-7.75964-.0002v1.72001h-2.245383v6.88003h-2.071199v-6.88003h-2.245384v-1.72001zm-77.559438 1.59601c-.861915 0-1.323405.623-1.323405 2.03101v1.34601c0 1.409.46149 2.03201 1.323405 2.03201.859912 0 1.321402-.62301 1.321402-2.03201v-1.34601c0-1.40801-.46149-2.03101-1.321402-2.03101zm33.594664-.0007c-.859913 0-1.321402.623-1.321402 2.03201v1.34601c0 1.408.461489 2.03101 1.321402 2.03101.861915 0 1.323405-.62301 1.323405-2.03101v-1.34601c0-1.40901-.46149-2.03201-1.323405-2.03201zm-42.016605 3.40292h-.834887v1.88201h.985046c.92298 0 1.372457-.31201 1.372457-.94701 0-.699-.474504-.935-1.522616-.935zm33.595866 0h-.834887v1.88201h.985046c.92298 0 1.372457-.31201 1.372457-.94701 0-.699-.473502-.935-1.522616-.935zm29.231432-3.27822h-1.136206v5.16003h1.136206c1.072139 0 1.321403-.79801 1.321403-1.95701v-1.24601c0-1.15901-.249264-1.95701-1.321403-1.95701zm84.609521-5.02982c1.00907 2.97601 1.30138 4.86902 1.0291 6.32403.99805-1.09401 2.68985-2.00101 5.67502-2.99002-2.7309 4.30802-4.4287 5.37703-6.83025 5.37303-.00601.007-.01001.015-.01602.023-.006-.007-.00901-.014-.01501-.021-.00801 0-.01602.001-.02503.001.003-.009.00601-.018.00801-.027-1.44954-1.91201-1.62072-3.91002.17418-8.68304zm-171.591763.0001c1.794906 4.77302 1.624725 6.77003.174185 8.68304.003003.009.006007.018.008009.027-.00901 0-.017018-.001-.026028-.001-.005005.007-.00901.014-.013014.02-.007007-.007-.011011-.015-.017018-.022-2.401549.004-4.100353-1.06501-6.830251-5.37403 2.984168.99001 4.677966 1.89601 5.675025 2.99102-.27329-1.45501.01902-3.34802 1.029092-6.32403zm139.441033 5.03002h-.92298v1.90701h.92298c.83589 0 1.43552-.112 1.43552-.922 0-.82301-.59963-.98501-1.43552-.98501zm-89.885323-.0003h-.923981v1.90701h.923981c.835887 0 1.434523-.112 1.434523-.922 0-.82301-.598636-.98501-1.434523-.98501zm-25.550926-.0118h-.684727v1.57001h.872927c.835887 0 1.210285-.262 1.210285-.76001 0-.512-.262279-.81-1.398485-.81zm33.596867 0h-.685728v1.57001h.872927c.835888 0 1.210285-.262 1.210285-.76001 0-.512-.262278-.81-1.397484-.81zm-63.154746-7.89164c3.708937 3.56302 4.402674 5.43903 3.895135 7.81604-2.20434-1.029-3.284487-2.71201-3.895135-7.81604zm182.697258-.0004c-.60965 5.10403-1.6898 6.78804-3.89514 7.81604-.50654-2.37701.1862-4.25302 3.89514-7.81604zm-102.793731-6.90223c1.708814 0 2.88206.911 3.169365 2.78001h-1.972094c-.087092-.548-.46149-1.059-1.197271-1.059-.860914 0-1.322404.623-1.322404 2.03101v1.346c0 1.34601.448476 2.03201 1.322404 2.03201.735781 0 1.072138-.374 1.197271-1.06h1.972094c-.300319 1.93201-1.348432 2.78001-3.169365 2.78001-1.95908 0-3.394604-1.184-3.394604-3.75202v-1.346c0-2.59202 1.435524-3.75202 3.394604-3.75202zm21.095696 0c1.870986 0 2.9201 1.098 3.169365 2.78001h-1.972094c-.087093-.536-.448476-1.059-1.197271-1.059-.859913 0-1.322404.623-1.322404 2.03101v1.346c0 1.40901.462491 2.03201 1.322404 2.03201.835887 0 1.110178-.524 1.186259-1.234h-1.14922v-1.72001h3.132326v.922c0 2.56802-1.210285 3.75202-3.169365 3.75202s-3.393603-1.184-3.393603-3.75202v-1.171c0-2.76702 1.434523-3.92702 3.393603-3.92702zm-26.423151.1253v8.60004h-2.070198v-8.60004zm21.096396 0v8.60004h-2.071199v-8.60004zm19.885911.0005 3.194391 4.82302v-4.82302h1.946068v8.59904h-1.671776l-3.169365-4.76102v4.76102h-1.946066v-8.59904zm-5.762818-.0002 2.994179 8.59904h-2.209346l-.461489-1.47001h-2.656821l-.449477 1.47001h-2.208345l2.99518-8.59904zm-45.997532.0001 2.333478 4.36202 2.319462-4.36202h1.935054v8.59904h-1.947067v-4.86002l-1.771881 3.43901h-1.111179l-1.733841-3.40201v4.82302h-1.946066v-8.59904zm22.967283-.0001v3.29002h2.644808v-3.29002h2.071198v8.59904h-2.071198v-3.58902h-2.644808v3.58902h-2.071199v-8.59904zm-67.158497-2.61291c1.311392 2.85601 1.801913 4.71102 1.680784 6.18603.879934-1.19101 2.464617-2.26901 5.331661-3.56102-2.270411 4.56702-3.849087 5.80503-6.237622 6.04903-.005006.008-.010011.016-.015016.024-.006007-.006-.011012-.013-.017018-.019l-.024026.004c.001001-.01.004004-.018.005005-.027-1.640742-1.75301-2.017141-3.72202-.723768-8.65604zm143.484223.0007c1.29237 4.93302.91698 6.90203-.72377 8.65504.00201.009.00401.018.00601.027l-.02603-.004c-.006.007-.01001.013-.01501.019-.00601-.007-.01001-.016-.01602-.024-2.38854-.244-3.96721-1.48201-6.23762-6.04803 2.86704 1.29201 4.45273 2.36901 5.33166 3.56002-.12013-1.47501.36939-3.33002 1.68078-6.18503zm-54.294537 5.47822-.797847 2.54302h1.584682zm48.964577-8.86984c3.32053 3.92602 3.81606 5.86303 3.06626 8.17504-2.08622-1.25001-2.98617-3.03602-3.06626-8.17504zm-132.824104-.0003c-.079084 5.14002-.980041 6.92503-3.066256 8.17504-.750797-2.31101-.25427-4.24902 3.066256-8.17504z" fill="#231f20" fill-rule="evenodd" transform="translate(-879 -1248)"></path></svg> 