<?xml version="1.0" encoding="UTF-8"?> <svg xmlns="http://www.w3.org/2000/svg" viewBox="0 0 235.41 149.63"><defs><style>.cls-1{fill:#231f20;}</style></defs><g id="Layer_2" data-name="Layer 2"><g id="Outlined"><path class="cls-1" d="M48.1,71.52v6.89H46.93l-2.68-4.27v4.27H42.92V71.52h1.16l2.69,4.32V71.52Z"></path><path class="cls-1" d="M55.17,71.52v1.19H52.28v1.55h2.59v1.17H52.28v1.8h2.89v1.18H50.88V71.52Z"></path><path class="cls-1" d="M59.84,78.41H58.52l-1.58-6.89h1.5l.91,4.53,1.31-4.53h1.26l1.35,4.56.91-4.56h1.51L64.1,78.41H62.76L61.3,73.67Z"></path><path class="cls-1" d="M72.73,71.52,74,74.09l1.24-2.57h1.61l-2.15,4.07v2.82h-1.4V75.59l-2.14-4.07Z"></path><path class="cls-1" d="M81.19,78.5c-1.54,0-2.63-.94-2.63-3v-1c0-2.12,1.09-3,2.63-3s2.65.92,2.65,3v1C83.84,77.56,82.75,78.5,81.19,78.5Zm-1.23-3c0,1.32.42,1.87,1.23,1.87s1.25-.55,1.25-1.87v-1c0-1.31-.44-1.86-1.25-1.86S80,73.16,80,74.47Z"></path><path class="cls-1" d="M90.15,78.41,88.91,75.7H87.79v2.71H86.4V71.52h2.46c1.59,0,2.58.71,2.58,2.11a1.84,1.84,0,0,1-1.18,1.84l1.43,2.94Zm-1.42-3.89c.83,0,1.31-.17,1.31-.89s-.48-.92-1.31-.92h-.94v1.81Z"></path><path class="cls-1" d="M97.94,78.41,96.18,75.5l-.81,1.08v1.83H94V71.52h1.4v3l2.17-3H99.2L97.09,74.3l2.52,4.11Z"></path><path class="cls-1" d="M107.21,78.41h-1.39V71.52h1.39Z"></path><path class="cls-1" d="M115.26,71.52v6.89h-1.17l-2.69-4.27v4.27h-1.32V71.52h1.15l2.7,4.32V71.52Z"></path><path class="cls-1" d="M122.63,71.52v1.19h-1.9v5.7h-1.4v-5.7h-1.89V71.52Z"></path><path class="cls-1" d="M129.09,71.52v1.19h-2.9v1.55h2.6v1.17h-2.6v1.8h2.9v1.18h-4.3V71.52Z"></path><path class="cls-1" d="M135.22,78.41,134,75.7h-1.12v2.71h-1.4V71.52h2.47c1.59,0,2.58.71,2.58,2.11a1.84,1.84,0,0,1-1.18,1.84l1.43,2.94Zm-1.42-3.89c.83,0,1.31-.17,1.31-.89s-.48-.92-1.31-.92h-.94v1.81Z"></path><path class="cls-1" d="M144.22,71.52v6.89h-1.17l-2.69-4.27v4.27H139V71.52h1.15l2.7,4.32V71.52Z"></path><path class="cls-1" d="M146.28,78.41l2.39-6.89H150l2.4,6.89h-1.49l-.42-1.31h-2.31l-.42,1.31Zm2.28-2.49h1.56l-.78-2.42Z"></path><path class="cls-1" d="M158.69,71.52v1.19h-1.9v5.7h-1.4v-5.7H153.5V71.52Z"></path><path class="cls-1" d="M162.35,78.41H161V71.52h1.4Z"></path><path class="cls-1" d="M167.64,78.5c-1.55,0-2.64-.94-2.64-3v-1c0-2.12,1.09-3,2.64-3s2.65.92,2.65,3v1C170.29,77.56,169.2,78.5,167.64,78.5Zm-1.24-3c0,1.32.43,1.87,1.24,1.87s1.25-.55,1.25-1.87v-1c0-1.31-.44-1.86-1.25-1.86s-1.24.55-1.24,1.86Z"></path><path class="cls-1" d="M178,71.52v6.89h-1.17l-2.69-4.27v4.27h-1.33V71.52H174l2.7,4.32V71.52Z"></path><path class="cls-1" d="M180.08,78.41l2.4-6.89h1.34l2.4,6.89h-1.49l-.42-1.31H182l-.42,1.31Zm2.29-2.49h1.56l-.78-2.42Z"></path><path class="cls-1" d="M189.67,77.23h2.9v1.18h-4.3V71.52h1.4Z"></path><path class="cls-1" d="M60.15,85.3a1.42,1.42,0,0,0-1.36-.69c-.63,0-1,.29-1,.76s.44.77,1.36,1c1.44.36,2.09.9,2.09,2.12s-.76,2-2.38,2a3,3,0,0,1-2.66-1.13l1.07-.74a1.72,1.72,0,0,0,1.5.69c.8,0,1.07-.35,1.07-.77s-.29-.75-1.41-1c-1.36-.36-2-1-2-2.14s.72-1.94,2.36-1.94a2.68,2.68,0,0,1,2.42,1.13Z"></path><path class="cls-1" d="M65.11,88v2.43h-1.4V83.52h2.47c1.59,0,2.58.73,2.58,2.2S67.78,88,66.18,88ZM66,86.8c1,0,1.38-.34,1.38-1.08s-.41-1-1.38-1h-.87V86.8Z"></path><path class="cls-1" d="M72.51,90.41h-1.4V83.52h1.4Z"></path><path class="cls-1" d="M79.13,90.41,77.89,87.7H76.77v2.71h-1.4V83.52h2.47c1.59,0,2.58.71,2.58,2.11a1.84,1.84,0,0,1-1.18,1.84l1.43,2.94Zm-1.42-3.89c.83,0,1.31-.17,1.31-.89s-.48-.92-1.31-.92h-.94v1.81Z"></path><path class="cls-1" d="M84.44,90.41H83V83.52h1.4Z"></path><path class="cls-1" d="M91.9,83.52v1.19H90v5.7H88.6v-5.7H86.7V83.52Z"></path><path class="cls-1" d="M97.65,85.3a1.42,1.42,0,0,0-1.36-.69c-.63,0-1,.29-1,.76s.44.77,1.36,1c1.44.36,2.09.9,2.09,2.12s-.76,2-2.38,2a3,3,0,0,1-2.66-1.13l1.07-.74a1.72,1.72,0,0,0,1.5.69c.8,0,1.07-.35,1.07-.77s-.29-.75-1.41-1c-1.36-.36-2-1-2-2.14s.72-1.94,2.36-1.94a2.68,2.68,0,0,1,2.42,1.13Z"></path><path class="cls-1" d="M108.73,85.65a1.14,1.14,0,0,0-1.19-1c-.81,0-1.24.55-1.24,1.86v1c0,1.28.43,1.87,1.24,1.87s1-.35,1.19-1h1.33a2.3,2.3,0,0,1-2.52,2.23c-1.55,0-2.64-.94-2.64-3v-1c0-2.12,1.09-3,2.64-3a2.36,2.36,0,0,1,2.53,2.22Z"></path><path class="cls-1" d="M114.81,90.5c-1.55,0-2.64-.94-2.64-3v-1c0-2.12,1.09-3,2.64-3s2.65.92,2.65,3v1C117.46,89.56,116.37,90.5,114.81,90.5Zm-1.24-3c0,1.32.43,1.87,1.24,1.87s1.25-.55,1.25-1.87v-1c0-1.31-.44-1.86-1.25-1.86s-1.24.55-1.24,1.86Z"></path><path class="cls-1" d="M123.26,87.27l1.92-3.75h1.33v6.89h-1.34V86.14l-1.5,3h-.85l-1.48-3v4.25H120V83.52h1.31Z"></path><path class="cls-1" d="M130.67,88v2.43h-1.4V83.52h2.47c1.59,0,2.58.73,2.58,2.2s-1,2.26-2.58,2.26Zm.87-1.18c1,0,1.38-.34,1.38-1.08s-.41-1-1.38-1h-.87V86.8Z"></path><path class="cls-1" d="M140.87,83.52v1.19H138v1.55h2.6v1.17H138v1.8h2.9v1.18h-4.3V83.52Z"></path><path class="cls-1" d="M147.84,83.52v1.19h-1.9v5.7h-1.4v-5.7h-1.9V83.52Z"></path><path class="cls-1" d="M151.5,90.41h-1.4V83.52h1.4Z"></path><path class="cls-1" d="M159,83.52v1.19h-1.9v5.7h-1.4v-5.7h-1.9V83.52Z"></path><path class="cls-1" d="M162.62,90.41h-1.4V83.52h1.4Z"></path><path class="cls-1" d="M167.91,90.5c-1.55,0-2.64-.94-2.64-3v-1c0-2.12,1.09-3,2.64-3s2.65.92,2.65,3v1C170.56,89.56,169.47,90.5,167.91,90.5Zm-1.24-3c0,1.32.43,1.87,1.24,1.87s1.25-.55,1.25-1.87v-1c0-1.31-.44-1.86-1.25-1.86s-1.24.55-1.24,1.86Z"></path><path class="cls-1" d="M178.3,83.52v6.89h-1.17l-2.69-4.27v4.27h-1.33V83.52h1.16l2.7,4.32V83.52Z"></path><path class="cls-1" d="M101.06,121.91H91.41v-2l5.23-6.17a4.74,4.74,0,0,0,1.45-3.1,1.83,1.83,0,0,0-2-1.9,1.86,1.86,0,0,0-2,1.9H91.38a4.95,4.95,0,0,1,9.86,0c0,2.06-1.36,3.67-2.36,4.85l-3.21,3.78h5.39Z"></path><path class="cls-1" d="M117,117.13c0,3.51-2.45,5-5.26,5s-5.25-1.47-5.25-5v-6.08c0-3.67,2.44-5,5.25-5s5.26,1.31,5.26,5Zm-5.26-8.39c-1.42,0-2.1.91-2.1,2.58v5.53c0,1.68.68,2.59,2.1,2.59s2.09-.91,2.09-2.59v-5.53C113.86,109.65,113.18,108.74,111.77,108.74Z"></path><path class="cls-1" d="M130.06,121.91H120.4v-2l5.24-6.17a4.79,4.79,0,0,0,1.45-3.1,1.83,1.83,0,0,0-2-1.9,1.86,1.86,0,0,0-2,1.9h-2.81a4.95,4.95,0,0,1,9.86,0c0,2.06-1.36,3.67-2.36,4.85l-3.22,3.78h5.4Z"></path><path class="cls-1" d="M140.63,121.91h-3.17V109.58l-2.24,1.47V108l2.56-1.72h2.85Z"></path><path class="cls-1" d="M186.25,17.48c1.6-5,.54-9.09-6.55-17.48C179.87,11,181.79,14.8,186.25,17.48Z"></path><path class="cls-1" d="M189.43,25.79l0,.05,0,0h.06s0,0,0-.06c3.5-3.74,4.3-7.95,1.54-18.5-2.8,6.1-3.85,10.07-3.59,13.22-1.88-2.55-5.26-4.85-11.38-7.61C181,22.62,184.33,25.27,189.43,25.79Z"></path><path class="cls-1" d="M218.28,56.86h0c.55-3.5-.2-8-2.58-15-3.89,10.36-4,15.35-1.45,19.61l-5.19,10.71L195,35.81c3-4,3.41-9,.6-19.71-3.1,6.75-4.31,11.2-4.11,14.74l-.18,0h0c-2.18-2.79-6-5.34-12.76-8.38,4.92,9.91,8.51,13.38,13.35,14.44l15.2,39.26-34.41,71.05a1.65,1.65,0,0,0,.77,2.21,1.6,1.6,0,0,0,1.11.12,1.63,1.63,0,0,0,1.1-.89l21.46-44.31,20.07-41.46c4.95-.54,8.88-3.61,14.82-13-7,2.34-11.12,4.49-13.58,7C218.37,56.94,218.34,56.89,218.28,56.86Z"></path><path class="cls-1" d="M233,27.32C225,34.94,223.55,39,224.63,44,229.34,41.83,231.64,38.23,233,27.32Z"></path><path class="cls-1" d="M220.7,52.08h.06s0,0,0,0l0,0c5.13,0,8.76-2.28,14.59-11.49-6.38,2.11-10,4-12.12,6.39.58-3.11,0-7.16-2.2-13.52-3.83,10.21-3.47,14.48-.37,18.56C220.71,52,220.71,52.06,220.7,52.08Z"></path><path class="cls-1" d="M49.16,17.48c-1.6-5-.55-9.09,6.55-17.48C55.54,11,53.61,14.8,49.16,17.48Z"></path><path class="cls-1" d="M46,25.79l0,.05,0,0h0s0,0,0-.06c-3.5-3.74-4.31-7.95-1.55-18.5,2.8,6.1,3.85,10.07,3.59,13.22,1.88-2.55,5.27-4.85,11.39-7.61C54.45,22.62,51.08,25.27,46,25.79Z"></path><path class="cls-1" d="M17.13,56.86h0c-.55-3.5.2-8,2.57-15,3.89,10.36,4,15.35,1.46,19.61l5.19,10.71L40.42,35.81c-3-4-3.42-9-.6-19.71,3.09,6.75,4.3,11.2,4.11,14.74,0,0,.11,0,.17,0h0c2.18-2.79,6-5.34,12.76-8.38C52,32.41,48.36,35.88,43.53,36.94L28.33,76.2l34.4,71.05a1.65,1.65,0,0,1-.76,2.21,1.65,1.65,0,0,1-2.21-.77L38.3,104.38,18.22,62.92c-4.94-.54-8.88-3.61-14.82-13,7,2.34,11.13,4.49,13.58,7C17,56.94,17.07,56.89,17.13,56.86Z"></path><path class="cls-1" d="M2.46,27.32C10.38,34.94,11.86,39,10.78,44,6.07,41.83,3.76,38.23,2.46,27.32Z"></path><path class="cls-1" d="M14.7,52.08h0l0,0,0,0C9.46,52.08,5.83,49.8,0,40.59c6.37,2.11,10,4,12.12,6.39-.58-3.11,0-7.16,2.2-13.52,3.83,10.21,3.46,14.48.37,18.56C14.69,52,14.7,52.06,14.7,52.08Z"></path><path class="cls-1" d="M99.22,50.1v2c0,5.49-2.59,8-6.77,8s-7.25-2.53-7.25-8v-2.5c0-5.92,3.07-8.39,7.25-8.39,4,0,6.23,2.34,6.77,5.94H95a2.5,2.5,0,0,0-2.56-2.27c-1.84,0-2.82,1.33-2.82,4.35v2.87c0,3,1,4.35,2.82,4.35S94.82,55.3,95,53.78H92.53V50.1Z"></path><path class="cls-1" d="M109.92,60.09c-4.18,0-7.24-2.53-7.24-8V49.2c0-5.55,3.06-8,7.24-8s7.25,2.47,7.25,8v2.87C117.17,57.56,114.11,60.09,109.92,60.09Zm-2.82-8c0,3,1,4.35,2.82,4.35s2.83-1.34,2.83-4.35V49.2c0-3-1-4.35-2.83-4.35s-2.82,1.33-2.82,4.35Z"></path><path class="cls-1" d="M125.46,56.15h7.19v3.68H121V41.44h4.43Z"></path><path class="cls-1" d="M135.58,59.83V41.44h6.84c4.19,0,7.25,2.05,7.25,7.86V52c0,5.75-3.06,7.86-7.25,7.86ZM145.25,52V49.3c0-2.48-.53-4.18-2.83-4.18H140v11h2.42C144.72,56.15,145.25,54.44,145.25,52Z"></path></g></g></svg> 